<svg xmlns="http://www.w3.org/2000/svg" viewBox="13 24 173 154" role="img" aria-label="Quiekel">
  <defs><clipPath id="head"><path d="M 37.6 70.2 L 39.0 67.8 L 40.6 65.6 L 42.3 63.5 L 44.3 61.6 L 46.4 59.9 L 48.7 58.4 L 51.1 57.1 L 53.6 56.0 L 56.2 55.1 L 58.8 54.5 L 61.5 54.1 L 64.3 54.0 L 135.7 54.0 L 138.5 54.1 L 141.2 54.5 L 143.8 55.1 L 146.4 56.0 L 148.9 57.1 L 151.3 58.4 L 153.6 59.9 L 155.7 61.6 L 157.7 63.5 L 159.4 65.6 L 161.0 67.8 L 162.4 70.2 L 176.5 97.6 L 177.7 99.9 L 178.6 102.3 L 179.4 104.7 L 180.1 107.2 L 180.6 109.8 L 181.0 112.3 L 181.2 114.9 L 181.2 117.5 L 181.1 120.1 L 180.8 122.6 L 180.4 125.2 L 179.8 127.7 L 175.9 142.3 L 174.6 146.5 L 172.8 150.4 L 170.5 154.2 L 167.9 157.7 L 164.9 160.9 L 161.6 163.7 L 158.0 166.2 L 154.2 168.2 L 150.1 169.9 L 145.9 171.1 L 141.6 171.8 L 137.3 172.0 L 62.7 172.0 L 58.4 171.8 L 54.1 171.1 L 49.9 169.9 L 45.8 168.2 L 42.0 166.2 L 38.4 163.7 L 35.1 160.9 L 32.1 157.7 L 29.5 154.2 L 27.2 150.4 L 25.4 146.5 L 24.1 142.3 L 20.2 127.7 L 19.6 125.2 L 19.2 122.6 L 18.9 120.1 L 18.8 117.5 L 18.8 114.9 L 19.0 112.3 L 19.4 109.8 L 19.9 107.2 L 20.6 104.7 L 21.4 102.3 L 22.3 99.9 L 23.5 97.6 Z"/><path d="M 43.5 76.1 L 41.7 77.1 L 39.7 77.8 L 37.6 78.2 L 35.5 78.1 L 33.4 77.7 L 31.5 76.9 L 29.7 75.8 L 28.1 74.4 L 26.8 72.8 L 25.8 70.9 L 25.1 68.9 L 24.8 66.9 L 24.0 52.0 L 24.1 48.3 L 24.9 44.6 L 26.2 41.1 L 28.1 38.0 L 30.6 35.1 L 33.5 32.8 L 36.7 30.9 L 40.2 29.7 L 43.9 29.0 L 47.6 29.0 L 51.3 29.7 L 54.8 30.9 L 68.5 37.1 L 70.4 38.2 L 72.0 39.5 L 73.4 41.2 L 74.4 43.0 L 75.1 45.0 L 75.5 47.1 L 75.5 49.2 L 75.1 51.3 L 74.4 53.2 L 73.3 55.1 L 71.9 56.7 L 70.3 58.0 Z"/><path d="M 156.5 76.1 L 158.3 77.1 L 160.3 77.8 L 162.4 78.2 L 164.5 78.1 L 166.6 77.7 L 168.5 76.9 L 170.3 75.8 L 171.9 74.4 L 173.2 72.8 L 174.2 70.9 L 174.9 68.9 L 175.2 66.9 L 176.0 52.0 L 175.9 48.3 L 175.1 44.6 L 173.8 41.1 L 171.9 38.0 L 169.4 35.1 L 166.5 32.8 L 163.3 30.9 L 159.8 29.7 L 156.1 29.0 L 152.4 29.0 L 148.7 29.7 L 145.2 30.9 L 131.5 37.1 L 129.6 38.2 L 128.0 39.5 L 126.6 41.2 L 125.6 43.0 L 124.9 45.0 L 124.5 47.1 L 124.5 49.2 L 124.9 51.3 L 125.6 53.2 L 126.7 55.1 L 128.1 56.7 L 129.7 58.0 Z"/></clipPath><mask id="snout-gap" maskUnits="userSpaceOnUse" x="13" y="24" width="173" height="154"><rect x="13" y="24" width="173" height="154" fill="white"/><path d="M 56.0 129.0 L 56.2 125.2 L 57.0 121.5 L 58.2 117.9 L 59.9 114.5 L 62.0 111.3 L 64.5 108.5 L 67.3 106.0 L 70.5 103.9 L 73.9 102.2 L 77.5 101.0 L 81.2 100.2 L 85.0 100.0 L 115.0 100.0 L 118.8 100.2 L 122.5 101.0 L 126.1 102.2 L 129.5 103.9 L 132.7 106.0 L 135.5 108.5 L 138.0 111.3 L 140.1 114.5 L 141.8 117.9 L 143.0 121.5 L 143.8 125.2 L 144.0 129.0 L 144.0 129.0 L 143.8 132.8 L 143.0 136.5 L 141.8 140.1 L 140.1 143.5 L 138.0 146.7 L 135.5 149.5 L 132.7 152.0 L 129.5 154.1 L 126.1 155.8 L 122.5 157.0 L 118.8 157.8 L 115.0 158.0 L 85.0 158.0 L 81.2 157.8 L 77.5 157.0 L 73.9 155.8 L 70.5 154.1 L 67.3 152.0 L 64.5 149.5 L 62.0 146.7 L 59.9 143.5 L 58.2 140.1 L 57.0 136.5 L 56.2 132.8 L 56.0 129.0 Z" fill="black" stroke="black" stroke-width="10" stroke-linejoin="round"/></mask></defs>
  <path d="M 37.6 70.2 L 39.0 67.8 L 40.6 65.6 L 42.3 63.5 L 44.3 61.6 L 46.4 59.9 L 48.7 58.4 L 51.1 57.1 L 53.6 56.0 L 56.2 55.1 L 58.8 54.5 L 61.5 54.1 L 64.3 54.0 L 135.7 54.0 L 138.5 54.1 L 141.2 54.5 L 143.8 55.1 L 146.4 56.0 L 148.9 57.1 L 151.3 58.4 L 153.6 59.9 L 155.7 61.6 L 157.7 63.5 L 159.4 65.6 L 161.0 67.8 L 162.4 70.2 L 176.5 97.6 L 177.7 99.9 L 178.6 102.3 L 179.4 104.7 L 180.1 107.2 L 180.6 109.8 L 181.0 112.3 L 181.2 114.9 L 181.2 117.5 L 181.1 120.1 L 180.8 122.6 L 180.4 125.2 L 179.8 127.7 L 175.9 142.3 L 174.6 146.5 L 172.8 150.4 L 170.5 154.2 L 167.9 157.7 L 164.9 160.9 L 161.6 163.7 L 158.0 166.2 L 154.2 168.2 L 150.1 169.9 L 145.9 171.1 L 141.6 171.8 L 137.3 172.0 L 62.7 172.0 L 58.4 171.8 L 54.1 171.1 L 49.9 169.9 L 45.8 168.2 L 42.0 166.2 L 38.4 163.7 L 35.1 160.9 L 32.1 157.7 L 29.5 154.2 L 27.2 150.4 L 25.4 146.5 L 24.1 142.3 L 20.2 127.7 L 19.6 125.2 L 19.2 122.6 L 18.9 120.1 L 18.8 117.5 L 18.8 114.9 L 19.0 112.3 L 19.4 109.8 L 19.9 107.2 L 20.6 104.7 L 21.4 102.3 L 22.3 99.9 L 23.5 97.6 Z" fill="#ffffff" stroke="#ffffff" stroke-width="7.0" stroke-linejoin="round"/>
  <path d="M 43.5 76.1 L 41.7 77.1 L 39.7 77.8 L 37.6 78.2 L 35.5 78.1 L 33.4 77.7 L 31.5 76.9 L 29.7 75.8 L 28.1 74.4 L 26.8 72.8 L 25.8 70.9 L 25.1 68.9 L 24.8 66.9 L 24.0 52.0 L 24.1 48.3 L 24.9 44.6 L 26.2 41.1 L 28.1 38.0 L 30.6 35.1 L 33.5 32.8 L 36.7 30.9 L 40.2 29.7 L 43.9 29.0 L 47.6 29.0 L 51.3 29.7 L 54.8 30.9 L 68.5 37.1 L 70.4 38.2 L 72.0 39.5 L 73.4 41.2 L 74.4 43.0 L 75.1 45.0 L 75.5 47.1 L 75.5 49.2 L 75.1 51.3 L 74.4 53.2 L 73.3 55.1 L 71.9 56.7 L 70.3 58.0 Z" fill="#ffffff" stroke="#ffffff" stroke-width="7.0" stroke-linejoin="round"/>
  <path d="M 156.5 76.1 L 158.3 77.1 L 160.3 77.8 L 162.4 78.2 L 164.5 78.1 L 166.6 77.7 L 168.5 76.9 L 170.3 75.8 L 171.9 74.4 L 173.2 72.8 L 174.2 70.9 L 174.9 68.9 L 175.2 66.9 L 176.0 52.0 L 175.9 48.3 L 175.1 44.6 L 173.8 41.1 L 171.9 38.0 L 169.4 35.1 L 166.5 32.8 L 163.3 30.9 L 159.8 29.7 L 156.1 29.0 L 152.4 29.0 L 148.7 29.7 L 145.2 30.9 L 131.5 37.1 L 129.6 38.2 L 128.0 39.5 L 126.6 41.2 L 125.6 43.0 L 124.9 45.0 L 124.5 47.1 L 124.5 49.2 L 124.9 51.3 L 125.6 53.2 L 126.7 55.1 L 128.1 56.7 L 129.7 58.0 Z" fill="#ffffff" stroke="#ffffff" stroke-width="7.0" stroke-linejoin="round"/>
  <path d="M 56.0 129.0 L 56.2 125.2 L 57.0 121.5 L 58.2 117.9 L 59.9 114.5 L 62.0 111.3 L 64.5 108.5 L 67.3 106.0 L 70.5 103.9 L 73.9 102.2 L 77.5 101.0 L 81.2 100.2 L 85.0 100.0 L 115.0 100.0 L 118.8 100.2 L 122.5 101.0 L 126.1 102.2 L 129.5 103.9 L 132.7 106.0 L 135.5 108.5 L 138.0 111.3 L 140.1 114.5 L 141.8 117.9 L 143.0 121.5 L 143.8 125.2 L 144.0 129.0 L 144.0 129.0 L 143.8 132.8 L 143.0 136.5 L 141.8 140.1 L 140.1 143.5 L 138.0 146.7 L 135.5 149.5 L 132.7 152.0 L 129.5 154.1 L 126.1 155.8 L 122.5 157.0 L 118.8 157.8 L 115.0 158.0 L 85.0 158.0 L 81.2 157.8 L 77.5 157.0 L 73.9 155.8 L 70.5 154.1 L 67.3 152.0 L 64.5 149.5 L 62.0 146.7 L 59.9 143.5 L 58.2 140.1 L 57.0 136.5 L 56.2 132.8 L 56.0 129.0 Z" fill="#ffffff" stroke="#ffffff" stroke-width="7.0" stroke-linejoin="round"/>
  <g clip-path="url(#head)" mask="url(#snout-gap)"><path d="M -1037.4 -20.0 L 0.1 -20.0 L 79.3 200.0 L -958.2 200.0 Z" fill="#ffd3df"/><path d="M 5.1 -20.0 L 60.1 -20.0 L 139.3 200.0 L 84.3 200.0 Z" fill="#ffb3c8"/><path d="M 65.1 -20.0 L 120.1 -20.0 L 199.3 200.0 L 144.3 200.0 Z" fill="#ff85a8"/><path d="M 125.1 -20.0 L 962.6 -20.0 L 1041.8 200.0 L 204.3 200.0 Z" fill="#f2547f"/></g>
  <path d="M 56.0 129.0 L 56.2 125.2 L 57.0 121.5 L 58.2 117.9 L 59.9 114.5 L 62.0 111.3 L 64.5 108.5 L 67.3 106.0 L 70.5 103.9 L 73.9 102.2 L 77.5 101.0 L 81.2 100.2 L 85.0 100.0 L 115.0 100.0 L 118.8 100.2 L 122.5 101.0 L 126.1 102.2 L 129.5 103.9 L 132.7 106.0 L 135.5 108.5 L 138.0 111.3 L 140.1 114.5 L 141.8 117.9 L 143.0 121.5 L 143.8 125.2 L 144.0 129.0 L 144.0 129.0 L 143.8 132.8 L 143.0 136.5 L 141.8 140.1 L 140.1 143.5 L 138.0 146.7 L 135.5 149.5 L 132.7 152.0 L 129.5 154.1 L 126.1 155.8 L 122.5 157.0 L 118.8 157.8 L 115.0 158.0 L 85.0 158.0 L 81.2 157.8 L 77.5 157.0 L 73.9 155.8 L 70.5 154.1 L 67.3 152.0 L 64.5 149.5 L 62.0 146.7 L 59.9 143.5 L 58.2 140.1 L 57.0 136.5 L 56.2 132.8 L 56.0 129.0 Z" fill="#f2547f"/>
  <path d="M 80.0 114.5 L 80.0 113.9 L 80.2 113.3 L 80.3 112.8 L 80.6 112.2 L 80.9 111.8 L 81.3 111.3 L 81.8 110.9 L 82.2 110.6 L 82.8 110.3 L 83.3 110.2 L 83.9 110.0 L 84.5 110.0 L 84.5 110.0 L 85.1 110.0 L 85.7 110.2 L 86.2 110.3 L 86.8 110.6 L 87.2 110.9 L 87.7 111.3 L 88.1 111.8 L 88.4 112.2 L 88.7 112.8 L 88.8 113.3 L 89.0 113.9 L 89.0 114.5 L 89.0 127.5 L 89.0 128.1 L 88.8 128.7 L 88.7 129.2 L 88.4 129.8 L 88.1 130.2 L 87.7 130.7 L 87.2 131.1 L 86.8 131.4 L 86.2 131.7 L 85.7 131.8 L 85.1 132.0 L 84.5 132.0 L 84.5 132.0 L 83.9 132.0 L 83.3 131.8 L 82.8 131.7 L 82.2 131.4 L 81.8 131.1 L 81.3 130.7 L 80.9 130.2 L 80.6 129.8 L 80.3 129.2 L 80.2 128.7 L 80.0 128.1 L 80.0 127.5 Z" fill="#151515"/>
  <path d="M 111.0 114.5 L 111.0 113.9 L 111.2 113.3 L 111.3 112.8 L 111.6 112.2 L 111.9 111.8 L 112.3 111.3 L 112.8 110.9 L 113.2 110.6 L 113.8 110.3 L 114.3 110.2 L 114.9 110.0 L 115.5 110.0 L 115.5 110.0 L 116.1 110.0 L 116.7 110.2 L 117.2 110.3 L 117.8 110.6 L 118.2 110.9 L 118.7 111.3 L 119.1 111.8 L 119.4 112.2 L 119.7 112.8 L 119.8 113.3 L 120.0 113.9 L 120.0 114.5 L 120.0 127.5 L 120.0 128.1 L 119.8 128.7 L 119.7 129.2 L 119.4 129.8 L 119.1 130.2 L 118.7 130.7 L 118.2 131.1 L 117.8 131.4 L 117.2 131.7 L 116.7 131.8 L 116.1 132.0 L 115.5 132.0 L 115.5 132.0 L 114.9 132.0 L 114.3 131.8 L 113.8 131.7 L 113.2 131.4 L 112.8 131.1 L 112.3 130.7 L 111.9 130.2 L 111.6 129.8 L 111.3 129.2 L 111.2 128.7 L 111.0 128.1 L 111.0 127.5 Z" fill="#151515"/>
  <circle cx="64" cy="84" r="7.5" fill="#151515"/>
  <circle cx="136" cy="84" r="7.5" fill="#151515"/>
  <path d="M 85.0 140.0 L 86.9 141.3 L 88.8 142.4 L 90.6 143.4 L 92.5 144.1 L 94.4 144.7 L 96.2 145.2 L 98.1 145.4 L 100.0 145.5 L 101.9 145.4 L 103.8 145.2 L 105.6 144.7 L 107.5 144.1 L 109.4 143.4 L 111.2 142.4 L 113.1 141.3 L 115.0 140.0" fill="none" stroke="#151515" stroke-width="4.5" stroke-linecap="round"/>
</svg>
